jumping_motion
nRows=26
nColumns=24
inDegrees=yes
endheader
time	pelvis_tilt	pelvis_list	pelvis_rotation	pelvis_tx	pelvis_ty	pelvis_tz	hip_flexion_r	hip_adduction_r	hip_rotation_r	knee_angle_r	ankle_angle_r	subtalar_angle_r	mtp_angle_r	hip_flexion_l	hip_adduction_l	hip_rotation_l	knee_angle_l	ankle_angle_l	subtalar_angle_l	mtp_angle_l	lumbar_extension	lumbar_bending	lumbar_rotation
1.880000	0.000000	0.000000	0.000000	0.000000	0.727602	0.000000	43.371079	0.000000	0.000000	-86.742157	43.371079	0.000000	0.000000	43.371079	0.000000	0.000000	-86.742157	43.371079	0.000000	0.000000	-28.914052	0.000000	0.000000
1.890000	0.000000	0.000000	0.000000	0.000000	0.729522	0.000000	42.959650	0.000000	0.000000	-85.919300	42.959650	0.000000	0.000000	42.959650	0.000000	0.000000	-85.919300	42.959650	0.000000	0.000000	-28.639767	0.000000	0.000000
1.900000	0.000000	0.000000	0.000000	0.000000	0.731633	0.000000	42.507289	0.000000	0.000000	-85.014577	42.507289	0.000000	0.000000	42.507289	0.000000	0.000000	-85.014577	42.507289	0.000000	0.000000	-28.338192	0.000000	0.000000
1.910000	0.000000	0.000000	0.000000	0.000000	0.733927	0.000000	42.015569	0.000000	0.000000	-84.031137	42.015569	0.000000	0.000000	42.015569	0.000000	0.000000	-84.031137	42.015569	0.000000	0.000000	-28.010379	0.000000	0.000000
1.920000	0.000000	0.000000	0.000000	0.000000	0.736398	0.000000	41.486064	0.000000	0.000000	-82.972128	41.486064	0.000000	0.000000	41.486064	0.000000	0.000000	-82.972128	41.486064	0.000000	0.000000	-27.657376	0.000000	0.000000
1.930000	0.000000	0.000000	0.000000	0.000000	0.739038	0.000000	40.920350	0.000000	0.000000	-81.840700	40.920350	0.000000	0.000000	40.920350	0.000000	0.000000	-81.840700	40.920350	0.000000	0.000000	-27.280233	0.000000	0.000000
1.940000	0.000000	0.000000	0.000000	0.000000	0.741840	0.000000	40.320000	0.000000	0.000000	-80.640000	40.320000	0.000000	0.000000	40.320000	0.000000	0.000000	-80.640000	40.320000	0.000000	0.000000	-26.880000	0.000000	0.000000
1.950000	0.000000	0.000000	0.000000	0.000000	0.744796	0.000000	39.686589	0.000000	0.000000	-79.373178	39.686589	0.000000	0.000000	39.686589	0.000000	0.000000	-79.373178	39.686589	0.000000	0.000000	-26.457726	0.000000	0.000000
1.960000	0.000000	0.000000	0.000000	0.000000	0.747899	0.000000	39.021691	0.000000	0.000000	-78.043382	39.021691	0.000000	0.000000	39.021691	0.000000	0.000000	-78.043382	39.021691	0.000000	0.000000	-26.014461	0.000000	0.000000
1.970000	0.000000	0.000000	0.000000	0.000000	0.751141	0.000000	38.326880	0.000000	0.000000	-76.653761	38.326880	0.000000	0.000000	38.326880	0.000000	0.000000	-76.653761	38.326880	0.000000	0.000000	-25.551254	0.000000	0.000000
1.980000	0.000000	0.000000	0.000000	0.000000	0.754516	0.000000	37.603732	0.000000	0.000000	-75.207464	37.603732	0.000000	0.000000	37.603732	0.000000	0.000000	-75.207464	37.603732	0.000000	0.000000	-25.069155	0.000000	0.000000
1.990000	0.000000	0.000000	0.000000	0.000000	0.758016	0.000000	36.853819	0.000000	0.000000	-73.707638	36.853819	0.000000	0.000000	36.853819	0.000000	0.000000	-73.707638	36.853819	0.000000	0.000000	-24.569213	0.000000	0.000000
2.000000	0.000000	0.000000	0.000000	0.000000	0.761633	0.000000	36.078717	0.000000	0.000000	-72.157434	36.078717	0.000000	0.000000	36.078717	0.000000	0.000000	-72.157434	36.078717	0.000000	0.000000	-24.052478	0.000000	0.000000
2.010000	0.000000	0.000000	0.000000	0.000000	0.765360	0.000000	35.280000	0.000000	0.000000	-70.560000	35.280000	0.000000	0.000000	35.280000	0.000000	0.000000	-70.560000	35.280000	0.000000	0.000000	-23.520000	0.000000	0.000000
2.020000	0.000000	0.000000	0.000000	0.000000	0.769190	0.000000	34.459242	0.000000	0.000000	-68.918484	34.459242	0.000000	0.000000	34.459242	0.000000	0.000000	-68.918484	34.459242	0.000000	0.000000	-22.972828	0.000000	0.000000
2.030000	0.000000	0.000000	0.000000	0.000000	0.773116	0.000000	33.618017	0.000000	0.000000	-67.236035	33.618017	0.000000	0.000000	33.618017	0.000000	0.000000	-67.236035	33.618017	0.000000	0.000000	-22.412012	0.000000	0.000000
2.040000	0.000000	0.000000	0.000000	0.000000	0.777130	0.000000	32.757901	0.000000	0.000000	-65.515802	32.757901	0.000000	0.000000	32.757901	0.000000	0.000000	-65.515802	32.757901	0.000000	0.000000	-21.838601	0.000000	0.000000
2.050000	0.000000	0.000000	0.000000	0.000000	0.781224	0.000000	31.880466	0.000000	0.000000	-63.760933	31.880466	0.000000	0.000000	31.880466	0.000000	0.000000	-63.760933	31.880466	0.000000	0.000000	-21.253644	0.000000	0.000000
2.060000	0.000000	0.000000	0.000000	0.000000	0.785393	0.000000	30.987289	0.000000	0.000000	-61.974577	30.987289	0.000000	0.000000	30.987289	0.000000	0.000000	-61.974577	30.987289	0.000000	0.000000	-20.658192	0.000000	0.000000
2.070000	0.000000	0.000000	0.000000	0.000000	0.789627	0.000000	30.079942	0.000000	0.000000	-60.159883	30.079942	0.000000	0.000000	30.079942	0.000000	0.000000	-60.159883	30.079942	0.000000	0.000000	-20.053294	0.000000	0.000000
2.080000	0.000000	0.000000	0.000000	0.000000	0.793920	0.000000	29.160000	0.000000	0.000000	-58.320000	29.160000	0.000000	0.000000	29.160000	0.000000	0.000000	-58.320000	29.160000	0.000000	0.000000	-19.440000	0.000000	0.000000
2.090000	0.000000	0.000000	0.000000	0.000000	0.798264	0.000000	28.229038	0.000000	0.000000	-56.458076	28.229038	0.000000	0.000000	28.229038	0.000000	0.000000	-56.458076	28.229038	0.000000	0.000000	-18.819359	0.000000	0.000000
2.100000	0.000000	0.000000	0.000000	0.000000	0.802653	0.000000	27.288630	0.000000	0.000000	-54.577259	27.288630	0.000000	0.000000	27.288630	0.000000	0.000000	-54.577259	27.288630	0.000000	0.000000	-18.192420	0.000000	0.000000
2.110000	0.000000	0.000000	0.000000	0.000000	0.807078	0.000000	26.340350	0.000000	0.000000	-52.680700	26.340350	0.000000	0.000000	26.340350	0.000000	0.000000	-52.680700	26.340350	0.000000	0.000000	-17.560233	0.000000	0.000000
2.120000	0.000000	0.000000	0.000000	0.000000	0.811533	0.000000	25.385773	0.000000	0.000000	-50.771545	25.385773	0.000000	0.000000	25.385773	0.000000	0.000000	-50.771545	25.385773	0.000000	0.000000	-16.923848	0.000000	0.000000
2.130000	0.000000	0.000000	0.000000	0.000000	0.816010	0.000000	24.426472	0.000000	0.000000	-48.852945	24.426472	0.000000	0.000000	24.426472	0.000000	0.000000	-48.852945	24.426472	0.000000	0.000000	-16.284315	0.000000	0.000000
